<?xml version="1.0" encoding="UTF-8"?>
<!DOCTYPE svg PUBLIC "-//W3C//DTD SVG 1.1//EN" "http://www.w3.org/Graphics/SVG/1.1/DTD/svg11.dtd">
<!-- Creator: CorelDRAW -->
<svg xmlns="http://www.w3.org/2000/svg" xml:space="preserve" width="42cm" height="29.7cm" version="1.1" style="shape-rendering:geometricPrecision; text-rendering:geometricPrecision; image-rendering:optimizeQuality; fill-rule:evenodd; clip-rule:evenodd"
viewBox="0 0 42000 29700"
 xmlns:xlink="http://www.w3.org/1999/xlink"
 xmlns:xodm="http://www.corel.com/coreldraw/odm/2003">
 <defs>
  <style type="text/css">
   <![CDATA[
    .str2 {stroke:#FEFEFE;stroke-width:20;stroke-miterlimit:22.9256}
    .str1 {stroke:#373435;stroke-width:20;stroke-miterlimit:22.9256}
    .str0 {stroke:#282829;stroke-width:20;stroke-miterlimit:22.9256}
    .fil2 {fill:none}
    .fil3 {fill:#FEFEFE}
    .fil1 {fill:#373435}
    .fil4 {fill:#373435}
    .fil0 {fill:#282829}
   ]]>
  </style>
 </defs>
 <g id="Camada_x0020_1">
  <metadata id="CorelCorpID_0Corel-Layer"/>
  <g id="_2719362070576">
   <path class="fil0 str0" d="M36494.7 4954.8c43.1,65.42 68.19,143.64 68.19,227.57l0 1709.25c0,228.69 -186.4,415.09 -415.1,415.09l-2624.02 0c-93.09,0 -179.16,-30.87 -248.51,-82.95 -69.38,52.08 -155.45,82.95 -248.54,82.95l-673.39 0 0 -96.98 -857.61 0 0 96.98 -1093.02 0c-82.15,0 -158.8,-24.04 -223.35,-65.46 -64.58,41.42 -141.24,65.46 -223.38,65.46l-3504.97 0c-98.81,0 -189.75,-34.8 -261.13,-92.76 -71.39,57.96 -162.33,92.76 -261.13,92.76l-406.88 0 0 -96.98 -857.61 0 0 96.98 -4153.41 0c-228.69,0 -415.09,-186.4 -415.09,-415.09l0 -1709.25c0,-228.7 186.4,-415.1 415.09,-415.1l4085.6 0 9.23 175.35 765.5 -2 7.13 -173.35 550.44 0c98.8,0 189.74,34.8 261.13,92.77 71.38,-57.97 162.32,-92.77 261.13,-92.77l386.83 0c-5.52,-28.07 -8.43,-57.09 -8.43,-86.76l0 -1743.72c0,-246.95 201.34,-448.3 448.29,-448.3l4191.12 0c88.29,0 170.77,25.75 240.3,70.11 69.49,-44.36 151.96,-70.11 240.25,-70.11l4191.12 0c246.95,0 448.3,201.35 448.3,448.3l0 1743.72c0,103.16 -35.17,198.4 -94.08,274.29zm-15983.86 2171.14l3972.65 0 0 -2.18c0,-52.14 42.65,-94.8 94.8,-94.8l1029.54 0c52.14,0 94.8,42.66 94.8,94.8l0 2.18 226.11 0c128.91,0 234.33,-105.41 234.33,-234.32l0 -1709.25c0,-128.91 -105.42,-234.33 -234.33,-234.33l-376.95 0c-4,97.16 -84.66,175.34 -182.73,175.34l-763.39 0c-98.07,0 -178.73,-78.18 -182.73,-175.34l-3912.1 0c-128.91,0 -234.33,105.42 -234.33,234.33l0 1709.25c0,128.91 105.42,234.32 234.33,234.32zm5940.16 0l3504.97 0c104.29,0 193.2,-69.01 223.34,-163.67 30.15,94.66 119.09,163.67 223.39,163.67l912.26 0 0 -2.18c0,-52.14 42.65,-94.8 94.8,-94.8l1029.53 0c52.15,0 94.8,42.66 94.8,94.8l0 2.18 492.63 0c128.91,0 234.32,-105.41 234.32,-234.32l0 -1709.25c0,-128.91 -105.41,-234.33 -234.32,-234.33l497.05 0c-128.91,0 -234.33,105.42 -234.33,234.33l0 1709.25c0,128.91 105.42,234.32 234.33,234.32l2624.02 0c128.91,0 234.33,-105.41 234.33,-234.32l0 -1709.25c0,-128.91 -105.42,-234.33 -234.33,-234.33l-7.31 0c147.17,0 267.53,-120.37 267.53,-267.53l0 -1743.72c0,-147.17 -120.36,-267.53 -267.53,-267.53l-4191.12 0c-105.16,0 -196.62,61.45 -240.29,150.22 -43.67,-88.77 -135.09,-150.22 -240.26,-150.22l-4191.12 0c-147.16,0 -267.53,120.36 -267.53,267.53l0 1743.72c0,147.16 120.37,267.53 267.53,267.53l-826.69 0c-128.91,0 -234.33,105.42 -234.33,234.33l0 1709.25c0,128.91 105.42,234.32 234.33,234.32zm3728.31 -2014.23c-30.14,-94.65 -119.05,-163.67 -223.34,-163.67l446.73 0c-104.3,0 -193.24,69.02 -223.39,163.67zm1289.5 -163.67c105.17,0 196.59,-61.46 240.26,-150.22 43.67,88.76 135.13,150.22 240.29,150.22l-480.55 0zm-2050.63 0l0 44.73c0,55.05 -45.02,100.11 -100.11,100.11l-396.62 0c-55.09,0 -100.11,-45.06 -100.11,-100.11l0 -44.73 0 -29.6c0,-55.09 45.02,-100.11 100.11,-100.11l396.62 0c55.09,0 100.11,45.02 100.11,100.11l0 29.6zm5698.91 0l0 27.56c0,85.09 -69.56,154.66 -154.65,154.66l-374.15 0c-85.09,0 -154.66,-69.57 -154.66,-154.66l0 -27.56c0,-85.09 69.57,-154.66 154.66,-154.66l374.15 0c85.09,0 154.65,69.57 154.65,154.66z"/>
   <g>
    <rect class="fil0" x="1472.23" y="11982.96" width="2553.33" height="3849.63"/>
    <rect class="fil0" x="1472.23" y="16225.43" width="2553.33" height="3849.63"/>
    <rect class="fil0" x="1472.23" y="7753.59" width="2553.33" height="3849.63"/>
   </g>
   <rect class="fil1" x="19688.04" y="7506.86" width="403.35" height="3826.72"/>
   <g>
    <rect class="fil0" x="16525.23" y="21421.61" width="2787.11" height="2404.74" rx="265.81" ry="268.03"/>
    <rect class="fil0" x="7965.84" y="9855.71" width="6918.7" height="4013.52" rx="1848.82" ry="1854.95"/>
    <rect class="fil0" x="6349.12" y="7761.13" width="9769.93" height="1132.77" rx="222.73" ry="222.73"/>
    <rect class="fil0" x="21369.45" y="7520.07" width="2808.71" height="2319.03" rx="269.24" ry="269.24"/>
   </g>
   <rect class="fil2" x="18323.9" y="8462.92" width="770.59" height="1988.27" rx="149.27" ry="149.27"/>
   <rect class="fil2" x="39658.87" y="21067.5" width="1177.24" height="2360.74" rx="400.77" ry="400.77"/>
   <g>
    <rect class="fil0" x="19899.44" y="22798.11" width="6244.37" height="892.04" rx="260.18" ry="260.18"/>
    <rect class="fil0" x="30458.35" y="22831.75" width="7229.11" height="869.72" rx="187.86" ry="187.86"/>
    <rect class="fil0" x="27937.02" y="21204.81" width="1015.03" height="576" rx="102.76" ry="102.76"/>
   </g>
   <g>
    <path class="fil0 str1" d="M31991.62 2610.49l4108.06 0c172.84,0 314.04,141.2 314.04,314.04l0 1825c0,172.83 -141.2,314.04 -314.04,314.04l-1056.51 0 13.41 -69.86c1.17,-5.96 1.75,-12.04 1.75,-18.11l0 -27.56c0,-52.66 -43.24,-95.89 -95.89,-95.89l-374.15 0c-52.65,0 -95.89,43.23 -95.89,95.89l0 27.56c0,6.07 0.58,12.15 1.74,18.11l13.42 69.86 -2515.94 0c-172.84,0 -314.04,-141.21 -314.04,-314.04l0 -1825c0,-172.84 141.2,-314.04 314.04,-314.04z"/>
   </g>
   <path class="fil3 str0" d="M31991.62 2669.26l4108.06 0c140.4,0 255.28,114.87 255.28,255.27l0 1825c0,140.4 -114.88,255.27 -255.28,255.27l-985.39 0c1.82,-9.45 2.8,-19.23 2.8,-29.2l0 -27.56c0,-85.09 -69.56,-154.66 -154.65,-154.66l-374.15 0c-85.09,0 -154.66,69.57 -154.66,154.66l0 27.56c0,9.97 0.99,19.75 2.8,29.2l-2444.81 0c-140.4,0 -255.28,-114.87 -255.28,-255.27l0 -1825c0,-140.4 114.88,-255.27 255.28,-255.27z"/>
   <g>
    <path class="fil0 str1" d="M27249.8 2612.82l4231.27 0c171.49,0 311.71,140.22 311.71,311.71l0 1825c0,171.56 -140.15,311.71 -311.71,311.71l-2127.25 0 7.6 -63.17c0.21,-1.78 0.32,-3.52 0.32,-5.3l0 -74.33c0,-23.93 -19.74,-43.68 -43.67,-43.68l-396.62 0c-23.93,0 -43.67,19.75 -43.67,43.68l0 74.33c0,1.78 0.11,3.52 0.32,5.3l7.6 63.17 -1635.9 0c-171.49,0 -311.71,-140.22 -311.71,-311.71l0 -1825c0,-171.56 140.15,-311.71 311.71,-311.71z"/>
   </g>
   <path class="fil3 str0" d="M27249.8 2669.26l4231.27 0c140.4,0 255.27,114.98 255.27,255.27l0 1825c0,140.4 -114.87,255.27 -255.27,255.27l-2063.62 0c0.48,-3.93 0.73,-7.96 0.73,-12.03l0 -74.33c0,-55.09 -45.02,-100.11 -100.11,-100.11l-396.62 0c-55.09,0 -100.11,45.02 -100.11,100.11l0 74.33c0,4.07 0.25,8.1 0.73,12.03l-1572.27 0c-140.29,0 -255.27,-114.87 -255.27,-255.27l0 -1825c0,-140.4 114.87,-255.27 255.27,-255.27z"/>
   <g>
    <path class="fil0" d="M36932.93 11180.05c-100.48,11.16 -200.15,126.76 -1020.67,1039.24 -820.48,912.48 -2361.72,2621.84 -3903.01,4331.16 1114.52,841.13 2229.04,1682.23 3479.67,2189.11 1250.66,506.87 2637.43,679.49 4024.21,852.11 16.72,-1199.14 33.41,-2398.23 76.8,-3569.41 43.41,-1171.17 113.45,-2314.34 150.47,-2951.47 37.02,-637.13 41.02,-768.15 -17.56,-833.68 -58.59,-65.53 -179.68,-65.53 -441.24,-81.86 -261.53,-16.36 -663.54,-49.09 -1027.9,-185.09 -364.33,-136 -691.02,-375.31 -905.03,-541.6 -214,-166.33 -315.23,-259.68 -415.74,-248.51zm-636.66 -432.88c-152.22,162 -511.35,435.28 -706.55,583.6 -195.17,148.33 -226.41,171.79 -222.51,197.17 3.92,25.35 42.94,52.69 50.76,115.16 7.82,62.44 -15.64,160.01 -286.95,448.88 -271.27,288.88 -790.48,769.02 -1333.1,1305.79 -542.58,536.73 -1108.59,1130.12 -1536.05,1545.83 -427.45,415.75 -716.33,653.9 -876.4,765.13 -160.04,111.28 -191.24,95.64 -310.33,19.53 -119.06,-76.11 -325.93,-212.76 -751.46,-827.6 -425.5,-614.81 -1069.57,-1707.84 -1493.14,-2752.06 -423.53,-1044.23 -626.55,-2039.65 -733.9,-2713.04 -107.34,-673.39 -119.05,-1024.7 -117.12,-1221.83 1.96,-197.16 17.6,-240.07 46.87,-263.49 29.27,-23.42 72.22,-27.34 234.22,-5.85 162,21.45 443.09,68.29 692.91,80 249.82,11.71 468.44,-11.71 665.57,-25.35 197.13,-13.67 372.8,-17.6 470.4,-3.93 97.6,13.68 117.1,44.88 148.33,72.22 31.24,27.31 74.15,50.77 281.02,21.49 206.91,-29.27 577.79,-111.27 960.34,-183.49 382.55,-72.22 776.84,-134.65 1122.3,-160.04 345.49,-25.38 642.15,-13.67 870.51,1.97 228.37,15.6 388.44,35.09 562.15,42.91 173.71,7.82 361.06,3.89 513.31,-17.57 152.26,-21.45 269.35,-60.51 382.55,-85.85 113.24,-25.38 222.51,-37.13 284.95,-37.13 62.47,0 78.11,11.75 119.09,204.98 40.98,193.21 107.35,567.97 181.49,888.08 74.19,320.08 156.19,585.53 294.77,866.59 138.58,281.06 333.75,577.75 458.66,751.46 124.94,173.71 179.56,224.44 27.31,386.44z"/>
    <path class="fil0" d="M40014.18 10830.73c-4.94,-629.56 -22.61,-1883.54 -33.78,-2523.65 -11.16,-640.11 -15.82,-666.4 -21.23,-684.15 -5.39,-17.78 -11.57,-27.05 -28.59,-32.44 -16.98,-5.42 -44.8,-6.98 -646.84,-6.14 -602,0.8 -1778.23,4 -2383.29,5.56 -605.02,1.53 -638.84,1.42 -649.2,12.51 -10.37,11.06 2.73,33.31 632.04,679.9 629.31,646.55 1874.85,1917.43 2501.47,2550.31 626.66,632.87 634.41,627.67 629.42,-1.9z"/>
   </g>
   <path class="fil3 str2" d="M27384.49 24199.12l2080.13 0c260.87,0 474.36,213.46 474.36,474.41l0 509.71c0,260.91 -213.49,474.37 -474.36,474.37l-2080.13 0c-260.87,0 -474.36,-213.46 -474.36,-474.37l0 -509.71c0,-260.95 213.49,-474.41 474.36,-474.41zm1536.96 -19417.16l396.62 0c55.09,0 100.11,45.06 100.11,100.11l0 110.7c0,55.01 -45.05,100.11 -100.11,100.11l-396.62 0c-55.06,0 -100.11,-45.06 -100.11,-100.11l0 -110.7c0,-55.09 45.02,-100.11 100.11,-100.11zm5666.84 -24.94l374.15 0c85.09,0 154.65,105.96 154.65,191.02l0 27.56c0,85.09 -69.56,154.66 -154.65,154.66l-374.15 0c-85.09,0 -154.66,-69.57 -154.66,-154.66l0 -27.56c0,-85.09 69.57,-191.02 154.66,-191.02zm-10010 2580.93l1029.54 0c52.14,0 94.8,-42.66 94.8,-94.8l0 -155.75c0,-52.15 -42.7,-94.8 -94.8,-94.8l-1029.54 0c-52.11,0 -94.8,42.69 -94.8,94.8l0 155.75c0,52.1 42.65,94.8 94.8,94.8zm6831.47 0l1029.53 0c52.15,0 94.8,-42.66 94.8,-94.8l0 -119.39c0,-52.14 -42.65,-94.8 -94.8,-94.8l-1029.53 0c-52.15,0 -94.8,42.66 -94.8,94.8l0 119.39c0,52.14 42.65,94.8 94.8,94.8zm-14400.36 -780.81l2037.11 0c131.56,0 239.2,107.64 239.2,239.2l0 257.02c0,131.57 -107.64,239.2 -239.2,239.2l-2037.11 0c-131.57,0 -239.2,-107.63 -239.2,-239.2l0 -257.02c0,-131.56 107.63,-239.2 239.2,-239.2zm7596.27 -1945.1l763.39 0c100.62,0 182.91,227.89 182.91,328.36l0 0.07c0,100.62 -82.29,182.91 -182.91,182.91l-763.39 0c-100.62,0 -182.91,-82.29 -182.91,-182.91l0 -0.07c0,-100.62 82.29,-328.36 182.91,-328.36z"/>
   <rect class="fil0" x="3821.45" y="21149.99" width="12050.34" height="2709" rx="262.77" ry="262.77"/>
   <g>
    <path class="fil4" d="M24422 4821.16c-24.73,34.73 -41.64,81.24 -40.26,126.88l-3870.9 0c-128.83,0 -234.33,105.49 -234.33,234.33l0 1709.25c0,128.83 105.42,234.32 234.33,234.32l-1231.68 0c36.18,-97.27 36.87,-206.25 2.04,-304l691.31 0 0 -1639.57c0,-296.7 241.64,-465.61 538.33,-465.61l3935.56 -9.01 -24.4 113.41zm2284.16 -1884.37c0,-314.95 256.58,-571.53 571.53,-571.53l4191.12 0c85.75,0 167.17,19.01 240.3,53.05 73.09,-34.04 154.51,-53.05 240.25,-53.05l4191.12 0c314.95,0 571.53,256.58 571.53,571.53l0 1743.72c0,101.74 -26.8,197.42 -73.67,280.29 30.69,67.64 47.78,142.66 47.78,221.57l0 1639.57 3498.68 0c815.72,0 1482.05,666.33 1482.05,1482.05l0 14868.62c0,815.71 -666.33,1482.04 -1482.05,1482.04l-10252.25 0c11.85,-106.14 -14.58,-215.93 -81.17,-304l10333.42 0c647.94,0 1178.05,-530.11 1178.05,-1178.04l0 -14868.62c0,-647.93 -530.19,-1178.05 -1178.05,-1178.05l-4037.01 0c128.91,0 234.33,-105.41 234.33,-234.32 0,-1584.16 25.89,-2380.46 25.89,-3954.83 0,-147.17 -120.43,-267.53 -267.53,-267.53l-4191.12 0c-105.09,0 -196.62,61.45 -240.29,150.22 -43.67,-88.77 -135.17,-150.22 -240.26,-150.22l-4191.12 0c-147.09,0 -267.53,120.43 -267.53,267.53l-304 0zm-9903.2 4237.05c-8.8,-15.02 -16,-31.06 -21.42,-47.9l-15057.56 0c-647.86,0 -1178.04,530.19 -1178.04,1178.05l0 14868.62c0,647.86 530.11,1178.04 1178.04,1178.04l25279.89 0c-82.25,82.47 -121.16,193.24 -120.22,304l-25159.67 0c-815.72,0 -1482.05,-666.33 -1482.05,-1482.04l0 -14868.62c0,-815.72 666.33,-1482.05 1482.05,-1482.05l15100.22 0c-45.35,105.31 -52.22,228.73 -16.47,338.66l-4.77 13.24z"/>
    <path id="_1" class="fil2 str0" d="M24422 4821.16c-24.73,34.73 -41.64,81.24 -40.26,126.88l-3870.9 0c-128.83,0 -234.33,105.49 -234.33,234.33l0 1709.25c0,128.83 105.42,234.32 234.33,234.32l-1231.68 0c36.18,-97.27 36.87,-206.25 2.04,-304l691.31 0 0 -1639.57c0,-296.7 241.64,-465.61 538.33,-465.61l3935.56 -9.01m2259.76 -1770.96c0,-314.95 256.58,-571.53 571.53,-571.53l4191.12 0c85.75,0 167.17,19.01 240.3,53.05 73.09,-34.04 154.51,-53.05 240.25,-53.05l4191.12 0c314.95,0 571.53,256.58 571.53,571.53l0 1743.72c0,101.74 -26.8,197.42 -73.67,280.29 30.69,67.64 47.78,142.66 47.78,221.57l0 1639.57 3498.68 0c815.72,0 1482.05,666.33 1482.05,1482.05l0 14868.62c0,815.71 -666.33,1482.04 -1482.05,1482.04l-10252.25 0c11.85,-106.14 -14.58,-215.93 -81.17,-304l10333.42 0c647.94,0 1178.05,-530.11 1178.05,-1178.04l0 -14868.62c0,-647.93 -530.19,-1178.05 -1178.05,-1178.05l-4037.01 0c128.91,0 234.33,-105.41 234.33,-234.32 0,-1584.16 25.89,-2380.46 25.89,-3954.83 0,-147.17 -120.43,-267.53 -267.53,-267.53l-4191.12 0c-105.09,0 -196.62,61.45 -240.29,150.22 -43.67,-88.77 -135.17,-150.22 -240.26,-150.22l-4191.12 0c-147.09,0 -267.53,120.43 -267.53,267.53m-10207.2 4237.05c-8.8,-15.02 -16,-31.06 -21.42,-47.9l-15057.56 0c-647.86,0 -1178.04,530.19 -1178.04,1178.05l0 14868.62c0,647.86 530.11,1178.04 1178.04,1178.04l25279.89 0c-82.25,82.47 -121.16,193.24 -120.22,304l-25159.67 0c-815.72,0 -1482.05,-666.33 -1482.05,-1482.04l0 -14868.62c0,-815.72 666.33,-1482.05 1482.05,-1482.05l15100.22 0c-45.35,105.31 -52.22,228.73 -16.47,338.66l-4.77 13.24z"/>
   </g>
   <path class="fil0 str0" d="M20491.68 4884.4c-252.88,0 -544.22,-147.02 -544.22,-411.2l0 -1679.54c0,-264.26 291.27,-411.2 544.22,-411.2l5877.64 0c252.88,0 544.22,147.01 544.22,411.2l80.99 1755.57c0,264.26 -236.48,398.81 -489.43,398.81l-877.71 0c30.91,-54.44 36.18,-122.33 2.84,-176.26l874.87 0c195.06,0 305.75,-93.42 299.82,-222.55l-80.98 -1755.57c-5.92,-129.02 -159.6,-234.95 -354.62,-234.95l-5877.64 0c-195.06,0 -354.62,105.67 -354.62,234.95l0 1679.54c0,129.24 159.71,233.16 354.62,234.95l3889.81 36.36c-26.84,57.85 -16.87,125.85 27.6,176.25l-3917.41 -36.36z"/>
  </g>
 </g>
</svg>
