<svg xmlns="http://www.w3.org/2000/svg" viewBox="0 0 960 540" role="img" aria-labelledby="title desc">
  <title id="title">Indicador de Banheiro</title>
  <desc id="desc">Imagem indicativa para os pontos de banheiro no mapa.</desc>
  <defs>
    <linearGradient id="bg" x1="0" y1="0" x2="1" y2="1">
      <stop offset="0%" stop-color="#ecfbff"/>
      <stop offset="100%" stop-color="#d8f0ff"/>
    </linearGradient>
  </defs>
  <rect width="960" height="540" fill="url(#bg)"/>
  <g opacity="0.23" stroke="#8ec4df" stroke-width="2">
    <path d="M100 130h760M100 210h760M100 290h760M100 370h760M100 450h760"/>
    <path d="M170 80v390M310 80v390M450 80v390M590 80v390M730 80v390"/>
  </g>
  <rect x="245" y="120" width="470" height="300" rx="26" fill="#ffffff" stroke="#b6deef"/>
  <circle cx="430" cy="190" r="26" fill="#1384bd"/>
  <path d="M410 230h40v70h-40zm-15 72h70v40h-70z" fill="#1384bd"/>
  <circle cx="530" cy="190" r="26" fill="#1384bd"/>
  <path d="M515 230h30l20 80h-70z" fill="#1384bd"/>
  <text x="480" y="372" text-anchor="middle" font-family="Segoe UI, Arial, sans-serif" font-size="38" fill="#1f536e" font-weight="700">
    Banheiro
  </text>
  <text x="480" y="410" text-anchor="middle" font-family="Segoe UI, Arial, sans-serif" font-size="20" fill="#4b6b7b">
    Referencia visual de local
  </text>
</svg>
