<?xml version="1.0" encoding="UTF-8"?>
<!DOCTYPE svg PUBLIC "-//W3C//DTD SVG 1.1//EN" "http://www.w3.org/Graphics/SVG/1.1/DTD/svg11.dtd">
<!-- Creator: CorelDRAW -->
<svg xmlns="http://www.w3.org/2000/svg" xml:space="preserve" width="29.7cm" height="21cm" version="1.1" style="shape-rendering:geometricPrecision; text-rendering:geometricPrecision; image-rendering:optimizeQuality; fill-rule:evenodd; clip-rule:evenodd"
viewBox="2400 6900 25700 6600"
 xmlns:xlink="http://www.w3.org/1999/xlink"
 xmlns:xodm="http://www.corel.com/coreldraw/odm/2003">
 <defs>
  <style type="text/css">
   <![CDATA[
    .fil5 {fill:none}
    .fil3 {fill:#F8E125}
    .fil6 {fill:#7554A1}
    .fil1 {fill:#282829}
    .fil4 {fill:none;fill-rule:nonzero}
    .fil2 {fill:#7554A1;fill-rule:nonzero}
    .fil0 {fill:#282829;fill-rule:nonzero}
   ]]>
  </style>
 </defs>
 <g id="Camada_x0020_1">
  <metadata id="CorelCorpID_0Corel-Layer"/>
  <g id="_2372802493904">
   <g>
    <path class="fil0" d="M4765.21 11811.58c-16.36,-34.08 -25.24,-71.31 -25.24,-109.1l0 -1520.72 -6.7 -2006.85 -162.14 0 6.15 1847.17 0 1520.67c0,124.14 79.62,225.52 187.93,268.83zm-1600.08 967.34c95.67,228.52 323.55,387.44 588.19,387.44l3031.47 0 0 -2506.42 -165.24 0 0 2319.38 -3000.4 0c-179.78,0 -342.29,-76.96 -454.02,-200.4zm1953.76 -1320.58l0 187.03 162.81 0 0 -187.03 -162.81 0z"/>
    <path class="fil1" d="M7002.3 13166.36l1472.84 0 0 -1783.99 -92 -266.8 -75.33 0 0 1863.75 -1305.51 0 0 187.04zm2080.34 -187.04l64.58 187.04 1465.69 0 0 -4991.45 -169.98 0 0 4804.41 -1360.29 0zm-56.11 -3186.73l-558.51 -1617.68 -113.82 0 597 1731.32 75.33 0 0 -113.64z"/>
    <path class="fil1" d="M11466.78 13166.36l2473.78 0c343.19,0 629.19,-278.49 629.19,-628.4l0 -3734.65c0,-241.04 -125.3,-438.22 -309.53,-544.07 84.53,103.27 134.62,236.47 134.62,384.34l0 3734.65c0,331.44 -270.03,601.09 -601.1,601.09l-2470.71 0c-170.45,0 -325.37,-69.16 -436.2,-181.54 100.09,218.38 322.66,368.58 579.95,368.58zm1034.97 -1337.78c-8.07,-21.59 -12.58,-44.8 -12.58,-68.97l0 -2192.22c0,-114.27 100.09,-199.96 207.35,-199.96 33.78,0 66.32,7.47 95.4,20.94 -10.52,-121.23 -119.69,-207.97 -240.68,-207.97 -124.76,0 -234.39,100.34 -234.39,227.26l0 2192.22c0,109.1 81.56,204.92 184.9,228.7z"/>
    <path class="fil1" d="M16260.1 13166.36l0 -1885.17 10.77 0 -70.14 -187.03 -117.63 0 0 1885.16 -1295.81 0 0 187.04 1472.81 0zm535.3 -501.21l115.34 358.4 450.45 -1399.62 69.02 -194.65 0 -335.12 -118.01 0 -127.97 361.3 -388.83 1209.69zm758.82 314.17l0 187.04 1401.36 0 0 -4991.45 -180.37 0 0 4804.41 -1220.99 0zm-726.1 -3609.11l-10.33 -38.47 -428.98 -1156.83 -119.85 0 372.4 1005.39 83.64 311.76 70.45 0 32.67 -121.85z"/>
    <path class="fil1" d="M19809.43 13166.36l2473.78 0c343.19,0 629.2,-278.49 629.2,-628.4l0 -3734.65c0,-249.38 -134.12,-451.84 -328.87,-554.74 89.94,104.66 143.57,242 143.57,395.01l0 3734.65c0,331.44 -270.02,601.09 -601.09,601.09l-2470.71 0c-160.7,0 -307.57,-61.45 -416.75,-162.65 104.04,208.07 321.08,349.69 570.87,349.69zm1035.87 -1335.47c-8.64,-22.24 -13.46,-46.24 -13.46,-71.28l0 -2192.22c0,-114.27 100.1,-199.96 207.34,-199.96 29.65,0 58.34,5.75 84.58,16.28 -12.91,-118.78 -120.82,-203.31 -240.24,-203.31 -124.77,0 -234.39,100.34 -234.39,227.26l0 2192.22c0,113.02 87.56,211.82 196.17,231.01z"/>
    <path class="fil1" d="M23129.94 13166.36l1472.84 0 0 -1725.77 -112.08 -325.02 -75.33 0 0 1863.75 -1285.43 0 0 187.04zm2080.31 -187.04l64.58 187.04 1465.72 0 0 -4991.45 -190.06 0 0 4804.41 -1340.24 0zm-76.16 -3244.81l-538.46 -1559.6 -133.87 0 597 1731.32 75.33 0 0 -171.72z"/>
   </g>
   <path class="fil1" d="M2805.65 7019.93l24112.45 0c334.89,0 709.71,454.7 708.18,797.18l-8.16 1795.91 0 3641.84c0,401.11 -320.35,739.48 -724.84,739.48l-24062.8 0c-165.43,0 -316.76,-56.62 -437.88,-150.95 -182.61,-127.86 -319.95,-331.05 -319.95,-538.88l0 -5487.4c0,-342.94 398.11,-797.18 733,-797.18zm-2.03 770.79l0 5515.31 24116.51 0 0 -5515.31 -24116.51 0z"/>
   <path class="fil2" d="M4883.07 11806.96c-164.2,0 -278.49,-128.53 -278.49,-264.21l0 -1520.72 -6.7 -2006.85 -978.73 0c-349.89,0 -635.54,257.09 -635.54,606.98l0 3756.07c0,349.88 285.63,628.39 635.54,628.39l3027.7 0 0 -2506.41 -695.68 0c-102.17,14.89 -205.99,14.64 -307.64,0l-660.49 0 0 985.43 271.36 0 0 321.32 -371.33 0z"/>
   <polygon class="fil2" points="6864.1,13006.63 8335.11,13006.63 8335.11,11142.88 8363.67,11142.88 9006.34,13006.63 10470.21,13006.63 10470.21,8015.21 8999.2,8015.21 8999.2,9878.96 8970.64,9878.96 8327.97,8015.21 6864.1,8015.21 "/>
   <path class="fil2" d="M11323.01 13006.63l2470.72 0c342.76,0 628.39,-278.49 628.39,-628.39l0 -3734.64c0,-364.18 -285.63,-628.39 -628.39,-628.39l-2470.72 0c-349.9,0 -635.53,264.21 -635.53,628.39l0 3734.64c0,349.9 285.63,628.39 635.53,628.39zm1228.22 -1199.65c-107.11,0 -207.08,-92.83 -207.08,-207.09l0 -2192.22c0,-114.26 99.97,-199.95 207.08,-199.95 114.25,0 214.22,85.69 214.22,199.95l0 2192.22c0,114.26 -99.97,207.09 -214.22,207.09z"/>
   <polygon class="fil2" points="16110.39,13006.63 16110.39,11121.46 16181.79,11121.46 16310.33,11464.22 16760.2,12863.81 17210.07,11464.22 17331.46,11121.46 17402.87,11121.46 17402.87,13006.63 18802.47,13006.63 18802.47,8015.21 17274.34,8015.21 16853.03,9172.02 16774.48,9464.79 16745.92,9464.79 16667.37,9172.02 16238.92,8015.21 14639.38,8015.21 14639.38,13006.63 "/>
   <path class="fil2" d="M19655.28 13006.63l2470.72 0c342.76,0 628.39,-278.49 628.39,-628.39l0 -3734.64c0,-364.18 -285.63,-628.39 -628.39,-628.39l-2470.72 0c-349.9,0 -635.53,264.21 -635.53,628.39l0 3734.64c0,349.9 285.63,628.39 635.53,628.39zm1228.22 -1199.65c-107.11,0 -207.08,-92.83 -207.08,-207.09l0 -2192.22c0,-114.26 99.97,-199.95 207.08,-199.95 114.25,0 214.22,85.69 214.22,199.95l0 2192.22c0,114.26 -99.97,207.09 -214.22,207.09z"/>
   <polygon class="fil2" points="22971.66,13006.63 24442.67,13006.63 24442.67,11142.88 24471.23,11142.88 25113.9,13006.63 26577.77,13006.63 26577.77,8015.21 25106.76,8015.21 25106.76,9878.96 25078.2,9878.96 24435.53,8015.21 22971.66,8015.21 "/>
   <path class="fil3" d="M5813.64 8007.38c456.44,0 826.46,355.76 826.46,794.61 0,438.85 -370.02,794.61 -826.46,794.61 -456.43,0 -826.46,-355.76 -826.46,-794.61 0,-438.85 370.03,-794.61 826.46,-794.61z"/>
   <g>
    <g>
     <path class="fil4" d="M22439.37 13764.99c-0.41,-1.64 -0.41,-3.7 0,-6.17 -0.83,-23.48 -0.62,-48.5 0.62,-75.06 1.23,-26.56 3.29,-53.23 6.17,-80 2.89,-29.24 6.7,-57.35 11.43,-84.32 4.74,-26.98 9.89,-50.86 15.45,-71.66 5.55,-20.8 11.53,-37.48 17.91,-50.04 6.38,-12.56 12.66,-18.84 18.84,-18.84 1.24,0 2.27,0.21 3.09,0.62l0.62 0c7,1.64 12.04,6.69 15.13,15.13 3.09,8.44 4.43,19.46 4.02,33.05 -0.41,11.12 -1.44,23.99 -3.09,38.61 -1.65,14.62 -3.91,30.17 -6.8,46.64 -3.7,21.83 -8.23,44.68 -13.59,68.57 -5.35,23.89 -10.81,47.16 -16.37,69.81 -5.56,22.65 -11.01,43.65 -16.37,63.01 -5.35,19.35 -10.09,35.42 -14.21,48.18 0.83,22.24 2.48,41.91 4.95,59 2.47,17.09 6.38,29.96 11.73,38.61 4.53,7 9.48,9.67 14.83,8.03 4.12,-1.24 8.65,-4.43 13.59,-9.58 4.94,-5.15 10.3,-11.32 16.06,-18.53 5.77,-7.21 11.84,-15.34 18.23,-24.4 6.38,-9.06 12.66,-18.33 18.84,-27.8 10.29,-14.83 20.38,-29.24 30.27,-43.24 9.88,-14.01 19.56,-25.54 29.03,-34.6 5.77,-4.94 11.12,-4.94 16.06,0 2.47,2.06 3.61,4.74 3.4,8.03 -0.21,3.3 -1.34,5.98 -3.4,8.03 -8.65,8.24 -17.81,19.16 -27.49,32.75 -9.68,13.59 -19.25,27.59 -28.72,42 -7,10.3 -13.9,20.39 -20.7,30.27 -6.79,9.89 -13.59,18.84 -20.38,26.87 -6.8,8.04 -13.39,14.93 -19.77,20.7 -6.38,5.76 -12.46,9.47 -18.23,11.12 -16.88,5.35 -30.47,-0.62 -40.77,-17.92 -6.17,-10.7 -10.91,-25.22 -14.2,-43.55 -3.3,-18.32 -5.36,-39.43 -6.18,-63.32zm24.09 -90.81c7,-25.94 13.69,-53.33 20.08,-82.16 6.38,-28.83 11.84,-56.42 16.37,-82.78 2.88,-16.06 5.15,-31.09 6.79,-45.09 1.65,-14 2.68,-26.15 3.09,-36.45 0,-7.41 0,-13.38 0,-17.91 0,-4.53 -0.2,-7.21 -0.62,-8.03 -3.29,0.82 -6.69,7.1 -10.19,18.84 -3.5,11.73 -7,26.97 -10.5,45.71 -3.5,18.74 -7,40.26 -10.5,64.56 -3.5,24.29 -6.49,49.42 -8.96,75.36 -2.47,22.65 -4.32,45.3 -5.56,67.95zm45.71 -272.42l0.62 0 -0.62 0zm133.02 299.6c0.82,-3.29 2.47,-5.86 4.94,-7.72 2.47,-1.85 5.35,-2.37 8.65,-1.54 3.29,0.82 5.87,2.47 7.72,4.94 1.85,2.47 2.37,5.35 1.55,8.65l0 0.62c-1.65,6.59 -3.51,16.57 -5.56,29.96 -2.06,13.38 -3.09,26.87 -3.09,40.46 0,11.53 1.34,21.62 4.01,30.27 2.68,8.65 7.93,12.97 15.75,12.97 11.95,0 21.93,-4.12 29.97,-12.35 8.03,-8.24 14.51,-18.02 19.45,-29.35 4.95,-11.32 8.55,-22.75 10.82,-34.28 2.26,-11.53 4.01,-20.8 5.25,-27.8 0.82,-2.88 1.33,-5.25 1.54,-7.1 0.21,-1.86 0.52,-3.4 0.93,-4.64 2.88,-7 7.82,-9.47 14.82,-7.41 4.95,2.06 7.42,5.35 7.42,9.88l0.61 4.33c0.42,4.94 1.24,11.02 2.47,18.22 1.24,7.21 2.89,14.21 4.95,21.01 2.06,6.79 4.63,12.76 7.72,17.91 3.09,5.15 6.9,8.13 11.43,8.96 6.59,1.23 13.9,-0.52 21.93,-5.25 8.03,-4.74 15.96,-10.81 23.78,-18.23 7.83,-7.41 15.14,-15.13 21.93,-23.16 6.8,-8.03 12.25,-14.73 16.37,-20.08l1.24 -1.85c2.06,-2.47 4.73,-3.91 8.03,-4.33 3.29,-0.41 5.97,0.42 8.03,2.47 2.47,2.06 3.91,4.64 4.32,7.73 0.41,3.09 -0.41,5.87 -2.47,8.34l-1.23 1.85c-4.95,6.18 -11.43,13.9 -19.46,23.16 -8.03,9.27 -16.79,18.13 -26.26,26.57 -9.47,8.44 -19.46,15.34 -29.96,20.69 -10.5,5.36 -20.69,7 -30.58,4.94 -9.06,-2.05 -16.26,-6.48 -21.62,-13.28 -5.35,-6.79 -9.68,-14.51 -12.97,-23.16 -2.47,9.47 -5.87,18.84 -10.19,28.11 -4.33,9.26 -9.58,17.6 -15.76,25.01 -6.17,7.42 -13.59,13.59 -22.24,18.54 -8.64,4.94 -18.73,7.41 -30.27,7.41 -8.23,0 -15.13,-1.85 -20.69,-5.56 -5.56,-3.71 -9.99,-8.55 -13.28,-14.52 -3.3,-5.97 -5.56,-12.97 -6.8,-21 -1.23,-8.03 -1.85,-16.37 -1.85,-25.02 0,-14.83 1.13,-29.24 3.4,-43.24 2.26,-14 4.01,-24.51 5.25,-31.51l0 -0.62zm324.51 -3.7c2.89,1.23 4.84,3.29 5.87,6.18 1.03,2.88 0.93,5.76 -0.31,8.64 -1.23,3.3 -3.29,5.46 -6.17,6.49 -2.89,1.03 -5.77,0.72 -8.65,-0.93 -7.83,-3.29 -15.03,-4.94 -21.62,-4.94 -7,0 -12.98,1.86 -17.92,5.56 -4.53,3.3 -8.44,8.65 -11.74,16.06 -4.11,8.65 -6.17,18.95 -6.17,30.89 0,13.18 1.85,23.06 5.56,29.65 5.35,9.06 14.41,13.18 27.18,12.36 7.82,-0.41 16.26,-2.06 25.33,-4.94 9.06,-2.89 18.32,-6.59 27.79,-11.12 27.6,-13.18 50.04,-25.95 67.34,-38.3 17.3,-12.36 30.47,-22.86 39.53,-31.51 2.48,-2.47 5.26,-3.6 8.34,-3.4 3.09,0.21 5.87,1.34 8.34,3.4 2.06,2.06 3.09,4.74 3.09,8.03 0,3.3 -1.23,5.97 -3.7,8.03 -9.48,9.47 -23.48,20.7 -42.01,33.67 -18.53,12.97 -42.21,26.46 -71.04,40.46 -10.71,5.36 -21.31,9.68 -31.82,12.97 -10.5,3.3 -20.48,5.15 -29.96,5.56 -10.7,0.83 -20.18,-0.72 -28.41,-4.63 -8.24,-3.91 -14.83,-10.6 -19.77,-20.08 -5.77,-10.29 -8.65,-23.47 -8.65,-39.53 0,-7.41 0.62,-14.62 1.85,-21.62 1.24,-7 3.3,-13.39 6.18,-19.15 4.53,-9.89 10.91,-18.12 19.15,-24.71 9.06,-7 19.56,-10.5 31.51,-10.5 9.47,0 19.76,2.47 30.88,7.41zm262.13 5.56c2.88,1.23 4.84,3.29 5.86,6.18 1.03,2.88 0.93,5.76 -0.3,8.64 -1.24,3.3 -3.3,5.46 -6.18,6.49 -2.88,1.03 -5.77,0.72 -8.65,-0.93 -14,-6.59 -26.77,-10.5 -38.3,-11.73 -7.41,-0.83 -13.8,-0.72 -19.15,0.31 -5.35,1.02 -10.3,2.78 -14.83,5.25 -8.23,5.76 -14.21,13.38 -17.91,22.85 -2.88,5.36 -4.94,10.92 -6.18,16.68 -1.23,5.77 -2.26,11.33 -3.09,16.68 -1.23,9.47 -0.82,16.27 1.24,20.39 1.65,2.88 4.94,4.73 9.88,5.56 3.71,0.41 7.72,0.1 12.05,-0.93 4.32,-1.03 8.96,-2.37 13.9,-4.01 7.41,-2.89 14.82,-6.39 22.24,-10.51 7.41,-4.12 14.51,-8.44 21.31,-12.97 6.79,-4.53 12.97,-9.06 18.53,-13.59 5.56,-4.53 9.99,-8.44 13.28,-11.74 4.12,-4.12 8.45,-4.94 12.98,-2.47 4.53,2.47 6.79,6.39 6.79,11.74 0,19.77 2.68,33.67 8.03,41.7 5.36,8.03 12.05,11.94 20.08,11.73 8.03,-0.2 16.99,-3.39 26.87,-9.57 9.88,-6.18 19.67,-13.69 29.34,-22.55 9.68,-8.85 18.64,-17.91 26.88,-27.18 8.23,-9.27 14.62,-16.78 19.15,-22.55 2.88,-3.7 6.07,-5.97 9.57,-6.79 3.5,-0.83 6.49,-0.52 8.96,0.92 2.47,1.45 4.12,3.71 4.94,6.8 0.82,3.09 0,6.69 -2.47,10.81 -3.3,5.35 -9.16,13.08 -17.61,23.17 -8.44,10.09 -18.43,20.28 -29.96,30.57 -11.53,10.3 -23.88,19.46 -37.06,27.49 -13.18,8.03 -25.74,12.67 -37.69,13.9 -11.94,1.24 -22.54,-2.06 -31.81,-9.88 -9.27,-7.83 -16.16,-22.65 -20.69,-44.48 0,-0.41 -2.27,0.93 -6.8,4.02 -4.53,3.09 -10.09,6.69 -16.68,10.81 -6.59,4.12 -13.59,8.23 -21,12.35 -7.41,4.12 -13.8,7.21 -19.15,9.27 -12.77,5.35 -24.51,7.62 -35.21,6.79 -13.59,-0.82 -23.27,-6.79 -29.04,-17.91 -4.12,-9.06 -5.35,-20.18 -3.7,-33.36 0.82,-6.18 2.05,-12.77 3.7,-19.77 1.65,-7 4.12,-14 7.41,-21 3.3,-6.18 7.11,-12.05 11.43,-17.61 4.33,-5.56 9.58,-10.4 15.76,-14.51 6.17,-4.12 13.17,-7.01 21,-8.65 7.82,-1.65 16.88,-1.86 27.18,-0.62 6.59,0.82 13.59,2.37 21,4.63 7.42,2.27 15.45,5.46 24.1,9.58zm273.86 -17.3c2.06,2.06 3.3,4.63 3.71,7.72 0.41,3.09 -0.41,5.87 -2.47,8.34 -2.06,2.47 -4.63,3.81 -7.72,4.02 -3.09,0.2 -5.87,-0.72 -8.34,-2.78 -4.94,-4.12 -9.68,-7 -14.21,-8.65 -4.53,-1.65 -9.06,-2.68 -13.59,-3.09 -9.88,0 -17.5,2.68 -22.86,8.03 -3.29,3.3 -5.87,7.52 -7.72,12.67 -1.85,5.14 -2.37,11.22 -1.54,18.22 0.82,6.18 2.67,12.77 5.56,19.77 2.88,7 7.2,14.41 12.97,22.24l4.32 6.17c4.95,6.18 9.89,12.98 14.83,20.39 4.12,-3.71 8.24,-7.41 12.35,-11.12 4.12,-3.71 8.45,-7.41 12.98,-11.12 14,-11.94 28.62,-23.89 43.86,-35.83 15.24,-11.94 32.74,-25.33 52.51,-40.15 2.47,-2.06 5.25,-2.78 8.34,-2.17 3.08,0.62 5.66,2.17 7.72,4.64 4.12,5.76 3.29,11.12 -2.47,16.06 -19.77,14.83 -37.27,28.21 -52.51,40.15 -15.24,11.95 -29.65,23.48 -43.24,34.6 -4.53,4.12 -9.06,8.13 -13.59,12.04 -4.53,3.92 -9.07,7.93 -13.6,12.05 5.77,10.3 10.71,20.9 14.83,31.81 4.12,10.92 5.77,22.35 4.94,34.29 -0.82,13.18 -4.63,23.68 -11.43,31.5 -6.79,7.83 -14.92,13.18 -24.4,16.07 -14.41,4.53 -28.83,4.11 -43.24,-1.24l-0.62 0c-7,-2.88 -13.18,-6.59 -18.53,-11.12 -5.35,-4.53 -9.06,-10.09 -11.12,-16.68 -2.47,-7 -2.57,-14.52 -0.31,-22.55 2.27,-8.03 7.72,-16.16 16.37,-24.4 8.24,-7.82 15.86,-15.13 22.86,-21.93 7,-6.79 14,-13.28 21,-19.46 -2.88,-4.12 -5.56,-8.03 -8.03,-11.73 -2.47,-3.71 -5.15,-7.21 -8.03,-10.51l-4.32 -6.17c-7,-9.48 -12.26,-18.74 -15.76,-27.8 -3.5,-9.06 -5.66,-17.71 -6.48,-25.95 -0.83,-10.29 0.1,-19.46 2.78,-27.49 2.67,-8.03 6.9,-14.93 12.66,-20.69 4.53,-4.53 10.19,-8.34 16.99,-11.43 6.8,-3.09 14.52,-4.43 23.17,-4.02 6.58,0.42 13.38,1.96 20.38,4.64 7,2.67 14,6.9 21,12.66zm-27.79 197.06c0.41,-8.23 -0.72,-16.37 -3.4,-24.4 -2.68,-8.03 -6.28,-16.16 -10.81,-24.4 -6.18,5.77 -12.67,11.74 -19.46,17.92 -6.8,6.17 -13.69,12.76 -20.7,19.76 -4.94,4.95 -8.13,9.37 -9.57,13.29 -1.44,3.91 -1.75,7.31 -0.93,10.19 2.06,5.76 7.42,10.29 16.06,13.59l0.62 0c4.53,1.65 9.27,2.57 14.21,2.78 4.94,0.2 9.68,-0.31 14.21,-1.55 5.35,-1.64 9.88,-4.63 13.59,-8.95 3.7,-4.33 5.76,-10.4 6.18,-18.23zm507.37 -373.74c2.06,2.48 3.09,5.26 3.09,8.34 0,3.09 -1.23,5.67 -3.7,7.73 -5.77,4.94 -11.12,4.73 -16.07,-0.62 -4.94,-5.36 -9.26,-11.53 -12.97,-18.53 -4.53,-9.06 -7.62,-18.85 -9.26,-29.35 -1.65,-10.5 -1.65,-21.1 0,-31.81 1.64,-10.71 4.94,-21.11 9.88,-31.2 4.94,-10.09 11.74,-19.25 20.39,-27.49 3.29,-2.88 6.69,-5.45 10.19,-7.72 3.5,-2.26 7.1,-4.43 10.81,-6.49l1.85 -0.61c11.53,-4.95 22.45,-5.56 32.74,-1.86 10.3,2.89 18.12,9.27 23.48,19.15l0.62 1.86c2.88,7 5.14,18.12 6.79,33.36 1.65,15.23 2.68,33.25 3.09,54.05 0.41,20.8 0.41,43.76 0,68.88 -0.41,25.12 -1.24,50.86 -2.47,77.22 4.53,-2.47 9.26,-4.95 14.21,-7.42 4.94,-2.47 9.67,-4.94 14.2,-7.41 2.89,-1.65 5.77,-2.06 8.65,-1.24 2.89,0.83 5.15,2.68 6.8,5.56 1.65,2.89 2.06,5.77 1.23,8.65 -0.82,2.89 -2.67,5.15 -5.56,6.8 -6.59,3.7 -13.28,7.31 -20.07,10.81 -6.8,3.5 -13.7,6.9 -20.7,10.19 -1.23,26.77 -2.98,53.23 -5.25,79.38 -2.26,26.15 -4.63,50.35 -7.1,72.59 -2.47,22.24 -5.25,41.7 -8.34,58.38 -3.09,16.67 -6.08,29.13 -8.96,37.37 -5.76,15.65 -12.15,27.28 -19.15,34.9 -7,7.62 -14.41,12.25 -22.24,13.9 -11.94,2.47 -23.27,-0.41 -33.97,-8.65 -9.07,-6.59 -17.51,-16.47 -25.33,-29.65l-0.62 -1.23c-6.18,-10.3 -11.63,-22.04 -16.37,-35.22 -4.74,-13.17 -8.24,-26.66 -10.5,-40.46 -2.27,-13.8 -3.19,-27.28 -2.78,-40.46 0.41,-13.18 2.88,-24.92 7.41,-35.21 5.35,-16.06 12.56,-30.07 21.62,-42.01 9.06,-11.94 19.36,-22.55 30.89,-31.81 11.53,-9.27 23.89,-17.61 37.06,-25.02 13.18,-7.42 26.98,-14.62 41.39,-21.62l0.62 -11.74c1.24,-25.95 2.16,-51.07 2.78,-75.37 0.62,-24.3 0.72,-46.43 0.31,-66.41 -0.41,-19.97 -1.34,-37.16 -2.78,-51.58 -1.44,-14.41 -3.4,-24.5 -5.87,-30.27l0 -0.61c-2.06,-4.12 -5.35,-6.8 -9.88,-8.04 -4.94,-2.05 -10.5,-1.64 -16.68,1.24l-0.62 0c-5.35,2.47 -10.71,6.18 -16.06,11.12 -6.59,5.76 -11.74,12.56 -15.44,20.39 -3.71,7.82 -6.18,15.85 -7.42,24.09 -2.47,17.71 0,33.56 7.42,47.56 2.05,4.53 4.94,9.06 8.64,13.59zm26.57 381.16c2.47,-7.42 5.04,-18.85 7.72,-34.29 2.68,-15.44 5.15,-33.36 7.41,-53.74 2.27,-20.39 4.43,-42.63 6.49,-66.72 2.06,-24.09 3.91,-48.7 5.56,-73.82 -11.94,6.18 -23.48,12.46 -34.6,18.84 -11.12,6.38 -21.41,13.59 -30.88,21.62 -9.48,8.03 -17.82,16.99 -25.02,26.87 -7.21,9.89 -13.08,21.42 -17.61,34.6l0 0.62c-3.7,8.64 -5.76,18.63 -6.18,29.96 -0.41,11.32 0.42,22.96 2.48,34.9 2.05,11.94 5.14,23.68 9.26,35.21 4.12,11.53 9.06,21.83 14.83,30.89l0.62 0.62c6.58,11.12 12.97,18.94 19.15,23.47 5.76,4.53 10.91,6.18 15.44,4.94 8.65,-2.06 17.09,-13.38 25.33,-33.97zm155.88 -197.68c3.29,-0.42 6.07,0.41 8.34,2.47 2.26,2.06 3.6,4.73 4.01,8.03 0.42,3.29 -0.31,6.07 -2.16,8.34 -1.85,2.26 -4.43,3.6 -7.72,4.01 -9.47,1.24 -17.61,3.3 -24.4,6.18 -6.8,2.88 -12.46,6.18 -16.99,9.88 -5.77,4.53 -9.78,9.68 -12.05,15.45 -2.26,5.76 -3.39,10.91 -3.39,15.44 0,11.95 3.91,21.42 11.73,28.42 8.65,7.82 19.15,11.74 31.51,11.74 6.59,0 12.46,-1.24 17.61,-3.71 5.14,-2.47 9.78,-5.56 13.89,-9.27 4.53,-4.53 8.04,-9.26 10.51,-14.21 -11.95,0.42 -22.04,-2.05 -30.27,-7.41 -5.36,-2.88 -9.48,-7 -12.36,-12.35l-0.62 -0.62c-2.88,-5.35 -3.7,-11.12 -2.47,-17.3l0 -0.62c2.06,-10.29 8.86,-16.67 20.39,-19.15l0.62 -0.61c4.94,-1.24 10.91,-1.45 17.91,-0.62l0.62 0c3.71,0.82 7.41,1.85 11.12,3.09 3.7,1.23 7.21,2.88 10.5,4.94 3.29,2.06 6.28,4.74 8.96,8.03 2.67,3.29 4.42,7 5.25,11.12 5.76,-2.47 10.4,-4.63 13.9,-6.49 3.5,-1.85 6.59,-3.6 9.26,-5.25 2.68,-1.65 5.15,-3.4 7.42,-5.25 2.26,-1.85 5.04,-4.22 8.34,-7.1 4.53,-4.53 8.34,-7 11.42,-7.42 3.09,-0.41 6.29,0.83 9.58,3.71 2.88,2.47 3.81,5.35 2.78,8.65 -1.03,3.29 -2.57,5.97 -4.63,8.03 -9.48,8.24 -18.74,15.34 -27.8,21.31 -9.06,5.97 -19.98,11.22 -32.74,15.76 -2.06,6.17 -4.84,12.45 -8.34,18.84 -3.5,6.38 -8.14,12.25 -13.9,17.6 -5.77,5.77 -12.56,10.4 -20.39,13.9 -7.82,3.5 -16.68,5.25 -26.56,5.25 -9.47,0 -18.22,-1.54 -26.26,-4.63 -8.03,-3.09 -14.92,-7.52 -20.69,-13.28 -5.77,-5.77 -10.4,-12.46 -13.9,-20.08 -3.5,-7.62 -5.25,-15.96 -5.25,-25.02 0,-7.41 1.75,-15.44 5.25,-24.09 3.5,-8.65 9.37,-16.68 17.61,-24.09 6.17,-5.36 13.69,-9.89 22.54,-13.59 8.86,-3.71 19.46,-6.39 31.82,-8.03zm38.92 59.3l0 -1.85 0 -0.62c-0.83,-2.47 -2.47,-4.32 -4.95,-5.56 -3.29,-2.06 -7.41,-3.5 -12.35,-4.32 -3.71,-0.83 -7.21,-0.83 -10.5,0 -2.47,0.82 -3.71,1.64 -3.71,2.47 0,0.82 0.21,1.44 0.62,1.85l0 0.62c0.82,0.82 1.54,1.54 2.16,2.16 0.62,0.62 1.55,1.34 2.78,2.16 2.88,1.65 6.49,2.78 10.81,3.4 4.33,0.62 9.37,0.51 15.14,-0.31zm197.27 -48.8c2.88,1.23 4.84,3.29 5.86,6.18 1.03,2.88 0.93,5.76 -0.3,8.64 -1.24,3.3 -3.3,5.46 -6.18,6.49 -2.88,1.03 -5.77,0.72 -8.65,-0.93 -14,-6.59 -26.77,-10.5 -38.3,-11.73 -7.41,-0.83 -13.8,-0.72 -19.15,0.31 -5.35,1.02 -10.3,2.78 -14.83,5.25 -8.23,5.76 -14.21,13.38 -17.91,22.85 -2.88,5.36 -4.94,10.92 -6.18,16.68 -1.23,5.77 -2.26,11.33 -3.09,16.68 -1.23,9.47 -0.82,16.27 1.24,20.39 1.65,2.88 4.94,4.73 9.88,5.56 3.71,0.41 7.72,0.1 12.05,-0.93 4.32,-1.03 8.96,-2.37 13.9,-4.01 7.41,-2.89 14.82,-6.39 22.24,-10.51 7.41,-4.12 14.51,-8.44 21.31,-12.97 6.79,-4.53 12.97,-9.06 18.53,-13.59 5.56,-4.53 9.99,-8.44 13.28,-11.74 4.12,-4.12 8.45,-4.94 12.98,-2.47 4.53,2.47 6.79,6.39 6.79,11.74 0,19.77 2.68,33.67 8.03,41.7 5.36,8.03 12.05,11.94 20.08,11.73 8.03,-0.2 16.99,-3.39 26.87,-9.57 9.88,-6.18 19.67,-13.69 29.34,-22.55 9.68,-8.85 18.64,-17.91 26.88,-27.18 8.23,-9.27 14.62,-16.78 19.15,-22.55 2.88,-3.7 6.07,-5.97 9.57,-6.79 3.5,-0.83 6.49,-0.52 8.96,0.92 2.47,1.45 4.12,3.71 4.94,6.8 0.82,3.09 0,6.69 -2.47,10.81 -3.3,5.35 -9.16,13.08 -17.61,23.17 -8.44,10.09 -18.43,20.28 -29.96,30.57 -11.53,10.3 -23.88,19.46 -37.06,27.49 -13.18,8.03 -25.74,12.67 -37.69,13.9 -11.94,1.24 -22.54,-2.06 -31.81,-9.88 -9.27,-7.83 -16.16,-22.65 -20.69,-44.48 0,-0.41 -2.27,0.93 -6.8,4.02 -4.53,3.09 -10.09,6.69 -16.68,10.81 -6.59,4.12 -13.59,8.23 -21,12.35 -7.41,4.12 -13.8,7.21 -19.15,9.27 -12.77,5.35 -24.51,7.62 -35.21,6.79 -13.59,-0.82 -23.27,-6.79 -29.04,-17.91 -4.12,-9.06 -5.35,-20.18 -3.7,-33.36 0.82,-6.18 2.05,-12.77 3.7,-19.77 1.65,-7 4.12,-14 7.41,-21 3.3,-6.18 7.11,-12.05 11.43,-17.61 4.33,-5.56 9.58,-10.4 15.76,-14.51 6.17,-4.12 13.17,-7.01 21,-8.65 7.82,-1.65 16.88,-1.86 27.18,-0.62 6.59,0.82 13.59,2.37 21,4.63 7.42,2.27 15.45,5.46 24.1,9.58zm236.19 -10.5c3.29,-0.42 6.07,0.41 8.34,2.47 2.26,2.06 3.6,4.73 4.01,8.03 0.42,3.29 -0.31,6.07 -2.16,8.34 -1.85,2.26 -4.43,3.6 -7.72,4.01 -9.47,1.24 -17.61,3.3 -24.4,6.18 -6.8,2.88 -12.46,6.18 -16.99,9.88 -5.77,4.53 -9.78,9.68 -12.05,15.45 -2.26,5.76 -3.39,10.91 -3.39,15.44 0,11.95 3.91,21.42 11.73,28.42 8.65,7.82 19.15,11.74 31.51,11.74 6.59,0 12.46,-1.24 17.61,-3.71 5.14,-2.47 9.78,-5.56 13.89,-9.27 4.53,-4.53 8.04,-9.26 10.51,-14.21 -11.95,0.42 -22.04,-2.05 -30.27,-7.41 -5.36,-2.88 -9.48,-7 -12.36,-12.35l-0.62 -0.62c-2.88,-5.35 -3.7,-11.12 -2.47,-17.3l0 -0.62c2.06,-10.29 8.86,-16.67 20.39,-19.15l0.62 -0.61c4.94,-1.24 10.91,-1.45 17.91,-0.62l0.62 0c3.71,0.82 7.41,1.85 11.12,3.09 3.7,1.23 7.21,2.88 10.5,4.94 3.29,2.06 6.28,4.74 8.96,8.03 2.67,3.29 4.42,7 5.25,11.12 5.76,-2.47 10.4,-4.63 13.9,-6.49 3.5,-1.85 6.59,-3.6 9.26,-5.25 2.68,-1.65 5.15,-3.4 7.42,-5.25 2.26,-1.85 5.04,-4.22 8.34,-7.1 4.53,-4.53 8.34,-7 11.42,-7.42 3.09,-0.41 6.29,0.83 9.58,3.71 2.88,2.47 3.81,5.35 2.78,8.65 -1.03,3.29 -2.57,5.97 -4.63,8.03 -9.48,8.24 -18.74,15.34 -27.8,21.31 -9.06,5.97 -19.98,11.22 -32.74,15.76 -2.06,6.17 -4.84,12.45 -8.34,18.84 -3.5,6.38 -8.14,12.25 -13.9,17.6 -5.77,5.77 -12.56,10.4 -20.39,13.9 -7.82,3.5 -16.68,5.25 -26.56,5.25 -9.47,0 -18.22,-1.54 -26.26,-4.63 -8.03,-3.09 -14.92,-7.52 -20.69,-13.28 -5.77,-5.77 -10.4,-12.46 -13.9,-20.08 -3.5,-7.62 -5.25,-15.96 -5.25,-25.02 0,-7.41 1.75,-15.44 5.25,-24.09 3.5,-8.65 9.37,-16.68 17.61,-24.09 6.17,-5.36 13.69,-9.89 22.54,-13.59 8.86,-3.71 19.46,-6.39 31.82,-8.03zm38.92 59.3l0 -1.85 0 -0.62c-0.83,-2.47 -2.47,-4.32 -4.95,-5.56 -3.29,-2.06 -7.41,-3.5 -12.35,-4.32 -3.71,-0.83 -7.21,-0.83 -10.5,0 -2.47,0.82 -3.71,1.64 -3.71,2.47 0,0.82 0.21,1.44 0.62,1.85l0 0.62c0.82,0.82 1.54,1.54 2.16,2.16 0.62,0.62 1.55,1.34 2.78,2.16 2.88,1.65 6.49,2.78 10.81,3.4 4.33,0.62 9.37,0.51 15.14,-0.31z"/>
     <path class="fil4" d="M25369.96 13529.63c4.53,25.95 5.45,51.79 2.78,77.53 -2.68,25.74 -7.52,49.31 -14.52,70.73 -11.94,34.59 -25.33,64.35 -40.16,89.27 -14.82,24.91 -30.27,45.5 -46.33,61.77 -16.06,16.27 -32.43,28.93 -49.11,37.99 -16.68,9.06 -32.84,15.03 -48.49,17.92 -20.18,4.11 -38.82,4.11 -55.91,0 -17.09,-4.12 -30.99,-10.51 -41.7,-19.15 -11.94,-9.89 -19.35,-21.63 -22.23,-35.22 -2.89,-13.59 0.61,-26.97 10.5,-40.15 7,-9.47 18.01,-18.43 33.05,-26.87 15.03,-8.44 34.9,-15.34 59.61,-20.7 0.41,-15.23 0.72,-31.19 0.93,-47.87 0.2,-16.68 0.72,-34.08 1.54,-52.2 0.82,-39.54 1.96,-78.76 3.4,-117.68 1.44,-38.92 2.57,-72.59 3.4,-101 0.41,-3.3 1.64,-5.98 3.7,-8.04 2.06,-2.05 4.74,-3.08 8.03,-3.08 3.3,0 6.08,1.13 8.34,3.39 2.27,2.27 3.19,5.05 2.78,8.34 -0.82,14.42 -1.44,30.17 -1.85,47.26 -0.41,17.09 -0.93,35.11 -1.54,54.05 -0.62,18.95 -1.24,38.3 -1.86,58.07 -0.62,19.77 -1.13,39.54 -1.54,59.31 -0.83,16.88 -1.34,33.35 -1.55,49.42 -0.2,16.06 -0.51,31.3 -0.92,45.71 11.12,-1.65 23.27,-2.88 36.44,-3.71 3.3,-0.41 6.18,0.42 8.65,2.47 2.47,2.06 3.71,4.74 3.71,8.04 0.41,3.29 -0.41,6.07 -2.47,8.33 -2.06,2.27 -4.74,3.4 -8.03,3.4 -7,0.83 -13.8,1.65 -20.39,2.47 -6.59,0.83 -12.77,1.65 -18.53,2.47 -0.41,18.95 -0.72,35.32 -0.93,49.12 -0.2,13.79 -0.31,23.98 -0.31,30.57 0,3.3 -1.13,5.98 -3.39,8.03 -2.27,2.06 -5.05,3.09 -8.34,3.09 -3.3,0 -5.98,-1.03 -8.03,-3.09 -2.06,-2.05 -3.09,-4.73 -3.09,-8.03 0,-5.76 0,-15.13 0,-28.1 0,-12.98 0.41,-28.73 1.23,-47.26 -19.77,4.53 -35.62,10.09 -47.56,16.68 -11.95,6.59 -20.6,13.59 -25.95,21 -5.77,7.41 -7.72,15.14 -5.87,23.17 1.85,8.03 6.49,14.93 13.9,20.69 8.24,7 19.15,12.05 32.74,15.14 13.59,3.09 28.62,2.98 45.1,-0.31 14,-2.89 28.52,-8.45 43.55,-16.68 15.03,-8.24 29.86,-19.98 44.48,-35.21 14.62,-15.24 28.62,-34.39 42,-57.45 13.39,-23.07 25.64,-50.66 36.76,-82.78 7,-19.77 11.63,-41.6 13.9,-65.48 2.26,-23.89 1.54,-47.78 -2.16,-71.66 -2.47,-14.42 -6.28,-28.52 -11.43,-42.32 -5.15,-13.8 -11.84,-26.46 -20.08,-37.99 -8.24,-11.53 -18.02,-21.72 -29.34,-30.58 -11.33,-8.85 -24.81,-15.75 -40.46,-20.69 -14.83,-5.36 -31.61,-8.55 -50.35,-9.58 -18.74,-1.03 -39.64,0.31 -62.7,4.02 -3.3,0.82 -6.18,0.31 -8.65,-1.55 -2.47,-1.85 -4.12,-4.43 -4.94,-7.72 -0.41,-3.29 0.31,-6.18 2.16,-8.65 1.85,-2.47 4.43,-4.12 7.72,-4.94 25.12,-4.12 47.88,-5.56 68.26,-4.32 20.39,1.23 39.02,4.73 55.91,10.5 18.12,6.17 33.77,14.41 46.95,24.71 13.18,10.29 24.5,22.03 33.97,35.21 18.54,26.36 30.27,56.42 35.22,90.19zm25.52 244.01l0.62 0c19.36,-4.12 33.77,-9.37 43.24,-15.75 9.47,-6.38 15.65,-13.08 18.53,-20.08 1.24,-4.12 1.65,-7.62 1.24,-10.5 -0.41,-2.88 -1.65,-5.56 -3.71,-8.03 -4.94,-5.77 -11.73,-7.41 -20.38,-4.94 -6.59,2.06 -12.15,4.73 -16.68,8.03 -8.24,6.18 -14.83,14.62 -19.77,25.33 -1.65,4.53 -2.78,8.95 -3.4,13.28 -0.61,4.32 -0.51,8.54 0.31,12.66zm83.4 -27.18c-3.71,9.47 -11.33,18.53 -22.86,27.18 -11.53,8.65 -28,15.65 -49.42,21.01 2.88,2.47 5.97,4.73 9.27,6.79 3.29,2.06 7.21,3.5 11.74,4.32 11.53,2.48 25.12,1.45 40.77,-3.08 7.82,-2.48 16.47,-6.39 25.94,-11.74 9.47,-5.36 19.36,-11.53 29.65,-18.53 10.71,-7.83 21.63,-16.37 32.74,-25.64 11.12,-9.27 22.04,-19.25 32.75,-29.96 2.05,-2.06 4.73,-3.09 8.03,-3.09 3.29,0 5.97,1.24 8.03,3.71 4.94,4.94 4.94,10.29 0,16.06 -10.71,10.71 -21.93,20.9 -33.67,30.58 -11.74,9.67 -23.37,18.63 -34.9,26.87 -11.12,7.82 -21.93,14.62 -32.43,20.38 -10.51,5.77 -20.29,10.09 -29.35,12.98 -10.29,3.29 -19.87,5.14 -28.72,5.56 -8.86,0.41 -16.79,-0.21 -23.79,-1.86 -9.06,-2.06 -16.78,-5.45 -23.16,-10.19 -6.39,-4.74 -11.84,-10.19 -16.37,-16.37 -4.12,-5.35 -7.21,-11.53 -9.27,-18.53 -3.29,-14 -2.06,-28.62 3.71,-43.86 2.88,-7 6.69,-13.49 11.43,-19.46 4.73,-5.97 10.19,-11.22 16.37,-15.75 7.41,-5.36 15.23,-9.27 23.47,-11.74l0.62 0c9.06,-2.06 17.4,-1.96 25.02,0.31 7.62,2.26 13.69,6.28 18.22,12.04 4.94,5.36 8.03,11.95 9.27,19.77 0.41,3.3 0.41,6.9 0,10.81 -0.41,3.91 -1.44,7.72 -3.09,11.43zm338.73 -36.45c2.06,2.06 3.09,4.74 3.09,8.03 0,3.3 -1.03,5.98 -3.09,8.03 -3.71,3.71 -8.13,8.14 -13.28,13.29 -5.15,5.14 -11.02,10.81 -17.61,16.98 -6.59,6.18 -13.69,12.57 -21.31,19.15 -7.62,6.59 -15.55,12.98 -23.78,19.16 -16.89,13.17 -34.19,24.4 -51.89,33.66 -17.71,9.27 -33.98,13.49 -48.81,12.67 -8.64,-0.42 -15.65,-2.37 -21,-5.87 -5.35,-3.5 -9.47,-8.03 -12.35,-13.59 -2.89,-5.56 -4.74,-11.95 -5.56,-19.15 -0.83,-7.21 -1.03,-14.93 -0.62,-23.17 0.82,-7 1.85,-14.93 3.09,-23.78 1.23,-8.86 2.47,-16.58 3.7,-23.17 0.83,-4.12 1.44,-7.82 1.86,-11.12 0.41,-3.29 0.82,-6.38 1.23,-9.26 0.83,-3.3 2.37,-5.87 4.63,-7.73 2.27,-1.85 5.05,-2.57 8.34,-2.16 3.3,0.83 5.87,2.37 7.73,4.64 1.85,2.26 2.57,5.04 2.16,8.34 -0.83,3.29 -1.44,6.69 -1.85,10.19 -0.42,3.5 -1.03,7.1 -1.86,10.81 -0.82,6.59 -1.85,14.21 -3.09,22.86 -1.23,8.64 -2.26,16.06 -3.09,22.23 -0.82,9.89 0,18.43 2.48,25.64 2.47,7.21 7.82,11.02 16.06,11.43 11.12,0.82 24.3,-2.88 39.53,-11.12 15.24,-8.24 30.27,-18.33 45.1,-30.27 15.65,-12.35 30.06,-24.81 43.24,-37.37 13.18,-12.56 23.27,-22.35 30.27,-29.35 5.35,-4.94 10.91,-4.94 16.68,0zm-187.18 -21.62c-11.53,0 -17.3,-5.15 -17.3,-15.44 0,-4.53 1.45,-8.75 4.33,-12.67 2.88,-3.91 7.21,-5.86 12.97,-5.86 5.77,0 9.78,2.05 12.05,6.17 2.26,4.12 3.4,8.45 3.4,12.98 0,9.88 -5.15,14.82 -15.45,14.82zm186.77 29.04c-0.83,-3.3 -0.41,-6.18 1.23,-8.65 1.65,-2.47 4.12,-4.12 7.42,-4.94 3.29,-0.83 6.17,-0.42 8.64,1.23 2.48,1.65 4.12,4.12 4.95,7.41 2.06,9.06 4.84,18.33 8.34,27.8 3.5,9.48 7.51,18.95 12.04,28.42 3.3,6.18 6.59,12.15 9.89,17.91 3.29,5.77 6.79,11.12 10.5,16.07 6.59,-9.06 14.1,-19.98 22.55,-32.74 8.44,-12.77 15.54,-24.3 21.31,-34.6 -0.83,-0.41 -1.34,-0.72 -1.55,-0.93 -0.2,-0.2 -0.72,-0.51 -1.54,-0.92 -7,-4.53 -9.88,-10.3 -8.65,-17.3l0 -0.62c1.24,-4.94 4.74,-9.26 10.5,-12.97 4.12,-2.47 8.45,-3.29 12.98,-2.47 4.11,0.82 7.41,2.47 9.88,4.94l1.24 1.24c2.47,2.88 4.11,6.38 4.94,10.5 0,1.23 0.2,2.26 0.61,3.09 9.89,1.23 21.73,1.54 35.53,0.92 13.79,-0.61 27.28,-2.98 40.46,-7.1 3.29,-0.82 6.28,-0.52 8.96,0.93 2.67,1.44 4.42,3.6 5.25,6.48 0.82,3.3 0.51,6.28 -0.93,8.96 -1.44,2.68 -3.81,4.43 -7.1,5.25 -15.24,4.53 -30.79,7.21 -46.64,8.03 -15.86,0.83 -29.76,0.21 -41.7,-1.85 -3.3,6.18 -7,12.77 -11.12,19.77 -4.12,7 -8.55,14 -13.28,21 -4.74,7 -9.27,13.69 -13.59,20.08 -4.33,6.38 -8.14,12.04 -11.43,16.99l-6.8 9.26c-0.82,0.82 -1.44,1.65 -1.85,2.47 -2.47,2.06 -5.25,2.89 -8.34,2.47 -3.09,-0.41 -5.66,-1.85 -7.72,-4.32 -6.18,-7 -12.05,-14.83 -17.61,-23.48 -5.56,-8.64 -10.6,-17.7 -15.13,-27.18 -4.95,-10.29 -9.27,-20.59 -12.98,-30.88 -3.7,-10.3 -6.79,-20.39 -9.26,-30.27zm433.25 -7.42c2.06,2.06 3.09,4.74 3.09,8.03 0,3.3 -1.03,5.98 -3.09,8.03 -3.71,3.71 -8.13,8.14 -13.28,13.29 -5.15,5.14 -11.02,10.81 -17.61,16.98 -6.59,6.18 -13.69,12.57 -21.31,19.15 -7.62,6.59 -15.55,12.98 -23.78,19.16 -16.89,13.17 -34.19,24.4 -51.89,33.66 -17.71,9.27 -33.98,13.49 -48.81,12.67 -8.64,-0.42 -15.65,-2.37 -21,-5.87 -5.35,-3.5 -9.47,-8.03 -12.35,-13.59 -2.89,-5.56 -4.74,-11.95 -5.56,-19.15 -0.83,-7.21 -1.03,-14.93 -0.62,-23.17 0.82,-7 1.85,-14.93 3.09,-23.78 1.23,-8.86 2.47,-16.58 3.7,-23.17 0.83,-4.12 1.44,-7.82 1.86,-11.12 0.41,-3.29 0.82,-6.38 1.23,-9.26 0.83,-3.3 2.37,-5.87 4.63,-7.73 2.27,-1.85 5.05,-2.57 8.34,-2.16 3.3,0.83 5.87,2.37 7.73,4.64 1.85,2.26 2.57,5.04 2.16,8.34 -0.83,3.29 -1.44,6.69 -1.85,10.19 -0.42,3.5 -1.03,7.1 -1.86,10.81 -0.82,6.59 -1.85,14.21 -3.09,22.86 -1.23,8.64 -2.26,16.06 -3.09,22.23 -0.82,9.89 0,18.43 2.48,25.64 2.47,7.21 7.82,11.02 16.06,11.43 11.12,0.82 24.3,-2.88 39.53,-11.12 15.24,-8.24 30.27,-18.33 45.1,-30.27 15.65,-12.35 30.06,-24.81 43.24,-37.37 13.18,-12.56 23.27,-22.35 30.27,-29.35 5.35,-4.94 10.91,-4.94 16.68,0zm-187.18 -21.62c-11.53,0 -17.3,-5.15 -17.3,-15.44 0,-4.53 1.45,-8.75 4.33,-12.67 2.88,-3.91 7.21,-5.86 12.97,-5.86 5.77,0 9.78,2.05 12.05,6.17 2.26,4.12 3.4,8.45 3.4,12.98 0,9.88 -5.15,14.82 -15.45,14.82zm374.56 7.42c3.3,0.41 5.87,1.75 7.72,4.01 1.86,2.27 2.58,5.05 2.17,8.34 0,3.29 -1.24,5.97 -3.71,8.03 -2.47,2.06 -5.35,2.88 -8.65,2.47 -12.77,-0.82 -25.33,-1.65 -37.68,-2.47 -12.36,-0.82 -24.51,-1.44 -36.45,-1.85 -1.65,4.94 -2.98,9.06 -4.01,12.35 -1.03,3.3 -1.75,5.56 -2.17,6.8 -2.47,13.59 -5.56,26.15 -9.26,37.68 -1.24,26.77 -2.06,49.73 -2.47,68.88 -0.41,19.15 -0.62,31.2 -0.62,36.14 0,3.29 -1.13,6.07 -3.4,8.34 -2.26,2.26 -5.04,3.4 -8.34,3.4 -3.29,0 -5.97,-1.14 -8.03,-3.4 -2.06,-2.27 -3.09,-5.05 -3.09,-8.34 0,-3.71 0.11,-11.22 0.31,-22.55 0.21,-11.33 0.52,-25.64 0.93,-42.93 -2.06,2.06 -4.22,3.91 -6.49,5.56 -2.26,1.64 -4.43,3.29 -6.48,4.94 -10.3,6.18 -20.08,8.65 -29.35,7.41 -9.26,-1.23 -17.81,-4.94 -25.63,-11.12 -7.83,-7.41 -14.42,-16.68 -19.77,-27.8 -4.53,-11.12 -6.39,-22.65 -5.56,-34.59 0.82,-11.94 4.94,-23.17 12.35,-33.67 7.42,-10.5 18.95,-18.02 34.6,-22.55 14,-4.11 31.3,-6.59 51.89,-7.41 1.23,-22.65 2.78,-45.3 4.63,-67.95 1.85,-22.65 4.02,-44.07 6.49,-64.25 2.06,-16.88 4.22,-32.33 6.48,-46.33 2.27,-14 4.84,-26.15 7.73,-36.45 3.7,-13.17 8.13,-23.26 13.28,-30.27 5.15,-7 11.43,-9.88 18.84,-8.64 2.06,0 4.12,0.61 6.18,1.85 9.06,4.94 15.44,12.77 19.15,23.47 3.7,10.71 5.45,23.27 5.25,37.69 -0.21,14.41 -1.86,30.06 -4.94,46.95 -3.09,16.88 -6.9,33.87 -11.43,50.96 -4.53,17.09 -9.37,33.67 -14.52,49.73 -5.15,16.06 -9.99,30.47 -14.52,43.24 11.12,0.41 22.34,1.03 33.67,1.85 11.33,0.83 22.96,1.65 34.9,2.48zm-112.43 18.53c-8.65,0.41 -16.68,1.13 -24.09,2.16 -7.41,1.03 -14.21,2.37 -20.39,4.02 -10.29,3.29 -17.7,8.13 -22.23,14.51 -4.53,6.39 -7.21,13.49 -8.04,21.31 -0.41,4.53 -0.2,8.76 0.62,12.67 0.83,3.91 2.06,7.93 3.71,12.04 3.29,8.24 7.62,14.42 12.97,18.54 3.71,3.29 8.03,5.25 12.97,5.87 4.95,0.61 10.09,-0.73 15.45,-4.02 3.7,-2.06 7.41,-5.15 11.12,-9.27 3.7,-4.11 7.2,-9.47 10.5,-16.06 0.82,-1.64 1.65,-3.19 2.47,-4.63 0.82,-1.44 1.65,-3.19 2.47,-5.25 0.41,-8.24 0.72,-16.68 0.93,-25.33 0.2,-8.65 0.72,-17.5 1.54,-26.56zm24.71 -37.69c4.12,-11.94 8.55,-25.12 13.28,-39.53 4.74,-14.42 9.17,-29.04 13.29,-43.86 4.11,-14.83 7.72,-29.45 10.81,-43.86 3.08,-14.42 5.04,-27.7 5.86,-39.85 0.83,-12.15 0.31,-22.54 -1.54,-31.19 -1.85,-8.65 -5.66,-14.62 -11.43,-17.92 -0.41,1.24 -2.67,8.44 -6.79,21.62 -2.47,9.89 -4.84,21.62 -7.11,35.22 -2.26,13.59 -4.42,28.41 -6.48,44.47 -2.06,17.71 -3.92,36.35 -5.56,55.91 -1.65,19.56 -3.09,39.23 -4.33,58.99z"/>
    </g>
    <path class="fil5" d="M24325.63 13653.56c6.69,-3.89 14.59,-6.71 22.88,-7.06 8.29,-0.35 16.96,1.76 23.42,3.87 6.47,2.1 10.72,4.21 15.19,8.67 4.48,4.45 9.18,11.26 14.56,13.97 5.39,2.69 11.48,1.28 16.64,-0.47 5.17,-1.76 9.43,-3.86 12.47,-7.26 3.03,-3.41 4.86,-8.1 5.16,-11.61 0.3,-3.52 -0.91,-5.83 -3.95,-5.33 -3.04,0.48 -7.91,3.77 -10.94,6.13 -3.04,2.35 -4.26,3.75 -6.38,3.75 -2.13,0 -5.17,-1.4 -8.51,-3.16 -3.34,-1.75 -7,-3.86 -11.55,-6.66 -4.56,-2.81 -10.04,-6.32 -15.5,-8.07 -5.47,-1.75 -10.94,-1.75 -17.02,-2.1 -6.07,-0.36 -12.76,-1.07 -19.14,-0.71 -6.38,0.35 -12.47,1.76 -17.33,3.51 -4.86,1.76 -8.51,3.86 -11.25,8.32 -2.73,4.45 -4.55,11.25 -2.73,12.17 1.82,0.91 7.3,-4.06 13.98,-7.96z"/>
   </g>
   <path class="fil6" d="M4568.88 8015.18l176.28 0c5.32,0 9.66,4.35 9.66,9.67l0 111.53c0,5.31 -4.34,9.66 -9.66,9.66l-176.28 0c-5.31,0 -9.66,-4.35 -9.66,-9.66l0 -111.53c0,-5.32 4.35,-9.67 9.66,-9.67z"/>
  </g>
 </g>
</svg>
