<svg width="1417" height="560" viewBox="0 0 1417 560" fill="none" xmlns="http://www.w3.org/2000/svg">
<path d="M139.577 206.578C142.577 207.078 139.577 200.078 139.577 200.078L137.577 196.578C140.882 189.419 139.577 184.078 138.577 183.578C137.576 183.078 136.663 180.478 133.577 182.078C131.482 183.164 131.077 187.578 131.077 187.578L126.577 179.578C126.577 179.578 129.577 175.078 129.577 172.578C129.577 170.078 126.577 168.578 124.577 168.078C122.577 167.578 122.077 171.078 122.077 171.078L115.077 155.078C115.077 155.078 119.199 152.231 119.077 149.578C118.962 147.08 117.552 144.225 115.077 144.578C113.567 144.793 112.077 147.078 112.077 147.078L108.577 135.078C114.229 131.627 117.577 129.078 117.577 125.078C117.577 121.078 116.077 118.078 112.077 119.078C108.077 120.078 106.577 128.078 106.577 128.078L104.577 121.578C104.577 121.578 113.179 116.333 112.077 111.578C111.539 109.256 110.828 107.362 108.577 106.578C105.054 105.351 102.077 113.578 102.077 113.578L100.077 106.578C100.077 106.578 104.663 104.928 104.577 102.578C104.515 100.899 103.715 99.4509 102.077 99.0779C100.627 98.7477 98.5768 100.578 98.5768 100.578V93.0779C98.5768 93.0779 107.954 90.0401 108.577 85.0779C108.992 81.7673 108.543 78.6058 105.577 77.0779C101.51 74.9829 96.5768 84.5779 96.5768 84.5779L95.5768 75.5779C95.5768 75.5779 101.809 77.1832 103.577 74.5779C105.254 72.1063 104.736 68.4376 102.077 67.0779C99.7121 65.8689 95.5768 69.0779 95.5768 69.0779L96.0768 56.5779C96.0768 56.5779 103.977 60.7731 106.577 57.5779C108.548 55.1544 110.077 51.3904 106.577 49.5779C103.077 47.7654 98.5768 50.5779 98.5768 50.5779C100.794 47.6846 101.093 45.0829 106.577 45.5779C106.577 45.5779 107.977 50.8189 110.077 50.0779C111.824 49.4614 111.577 45.5779 111.577 45.5779C111.577 45.5779 112.698 50.7216 115.077 50.5779C116.482 50.493 117.556 49.886 118.077 48.5779C118.694 47.028 116.577 44.5779 116.577 44.5779C116.577 44.5779 119.472 45.6825 120.577 44.5779C121.681 43.4733 121.752 41.6066 120.577 40.5779C119.548 39.6778 117.077 40.5779 117.077 40.5779C117.077 40.5779 119.35 37.3509 118.077 36.0779C116.804 34.805 113.577 37.0779 113.577 37.0779C113.577 37.0779 114.543 34.5444 113.577 33.5779C112.61 32.6114 111.29 32.9487 110.077 33.5779C107.968 34.6714 109.077 39.5779 109.077 39.5779H107.077C107.077 39.5779 109.918 34.8685 108.077 33.0779C106.67 31.7098 104.861 31.7615 103.077 32.5779C100.186 33.9003 101.577 40.5779 101.577 40.5779L98.0768 41.0779C98.0768 41.0779 99.1459 36.2448 97.0768 35.0779C95.3424 34.0997 93.4517 34.6374 92.0768 36.0779C89.8452 38.416 95.5768 43.5779 95.5768 43.5779C92.0581 48.4235 90.8142 51.681 90.0768 58.5779C90.0768 58.5779 86.9481 57.9617 85.5768 59.0779C83.7533 60.5622 84.2036 62.8948 85.0768 65.0779C85.9501 67.261 89.5768 69.0779 89.5768 69.0779L90.0768 82.5779C90.0768 82.5779 86.2524 78.7671 83.5768 79.5779C80.6519 80.4643 79.7051 83.5443 80.0768 86.5779C80.6507 91.2616 91.0768 91.5779 91.0768 91.5779L94.5768 106.578C94.5768 106.578 88.5768 100.078 86.0768 104.078C83.5768 108.078 96.48 113.427 96.5768 114.578L100.077 126.078C99.2948 126.861 93.0767 119.078 88.0768 125.078C83.077 131.078 100.577 134.578 100.577 134.578L104.077 142.578C99.2186 142.461 98.0768 144.078 98.0768 145.578C98.0768 147.078 100.439 151.68 108.577 154.578L115.577 172.078C113.982 173.258 114.077 174.578 114.577 176.078C115.077 177.578 115.771 178.654 119.577 180.078L123.577 187.578C119.167 186.636 116.577 187.078 116.577 191.078C116.577 195.078 120.163 197.417 129.577 195.578C129.577 195.578 136.577 206.078 139.577 206.578Z" fill="#AF3A3A"/>
<path d="M398.5 142L396 141V121H383.5V107L379 107L379 124H392V143L398.5 146.5V142Z" fill="#97B433"/>
<path d="M462 192.596L479 179.096L478.998 156.595L474 157.096V177.096L462 185.596V192.596Z" fill="#97B433"/>
<path fill-rule="evenodd" clip-rule="evenodd" d="M188.501 527L159.001 394.5C105.41 432.859 71.0286 430.765 45.5439 400C25.7903 376.153 14.5011 294 45.5445 272C65.001 263.5 79.6352 265.971 89.5568 349.667C118.871 352.775 135.463 346.306 148.001 326C136.006 166.389 121.182 34.1063 219.501 9C283.414 11.5866 308.825 52.0468 320.624 209.389C354.999 226.069 403.96 206.943 401.314 198C401.314 198 387.996 149.246 401.314 125.222C414.632 101.198 442.385 110.683 454 121.5C465.615 132.316 462.923 215.191 459.998 233.436C457.073 251.682 458.848 269.813 419.653 277.524C385.403 288.025 363.778 288.116 320.624 277.524L299.001 527H188.501ZM180.001 260.5L219.001 502.5L184.501 260.5L197.501 251.5V208L177.501 184L180.001 80L174.001 186L192.501 212.5L195.001 250L180.001 260.5ZM216.501 187.5L214.001 123L212.001 190.5L220.001 198V218.5L212.001 224.5V254L225.001 265L239.501 368L230.001 371.5L252.001 503.5L235.001 374.5L245.001 371.5L229.501 262.5L216.501 251.5V226L224.501 221.5V196.5L216.501 187.5Z" fill="#97B433"/>
<path d="M214.001 123L216.501 187.5L224.501 196.5V221.5L216.501 226V251.5L229.501 262.5L245.001 371.5L235.001 374.5L252.001 503.5L230.001 371.5L239.501 368L225.001 265L212.001 254V224.5L220.001 218.5V198L212.001 190.5L214.001 123Z" fill="white"/>
<path d="M219.001 502.5L180.001 260.5L195.001 250L192.501 212.5L174.001 186L180.001 80L177.501 184L197.501 208V251.5L184.501 260.5L219.001 502.5Z" fill="white"/>
<path d="M252.5 149.5L245.5 168.5L262 350L249.5 168.5L252.5 149.5Z" fill="white"/>
<path d="M281 515L285 110.5L270.5 108.5V57.5L259.5 53L257 36L255 57.5L267 61L265.5 112.5L280.5 114L281 515Z" fill="white"/>
<path d="M86 390.5L74.5 388V372H59.5L45 315L55 377H70V392.5L86 390.5Z" fill="white"/>
<path d="M434 233.5L437 182L416.5 170V152L425.5 139.5L413 150.5V173.5L432 184L434 233.5Z" fill="white"/>
<path d="M87.8203 344.198L98.82 318.198L95.32 289.698H91.82L95.32 318.198L86.3203 335.198L87.8203 344.198Z" fill="#97B433"/>
<path d="M29.0007 301L12 295L11 282H7.5L8.5 298L28.0007 305L29.0007 301Z" fill="#97B433"/>
<circle cx="381" cy="98" r="9" stroke="#97B433" stroke-width="2"/>
<circle cx="93" cy="280" r="9" stroke="#97B433" stroke-width="2"/>
<circle cx="10" cy="274" r="9" stroke="#97B433" stroke-width="2"/>
<circle cx="475" cy="148" r="9" stroke="#97B433" stroke-width="2"/>
<path d="M646.518 101.288L623.104 124.018C615.414 115.644 608.92 110.004 603.28 107.099C597.641 104.193 590.976 102.655 582.943 102.655C568.588 102.655 556.967 107.611 548.251 117.353C540.048 126.239 535.946 138.202 535.946 153.241C535.946 170.331 541.073 183.49 551.498 192.719C560.043 200.409 570.468 204.169 582.943 204.169C591.146 204.169 598.324 202.46 604.477 199.042C610.458 195.795 617.123 189.984 624.13 181.61L647.543 204.34C639.853 212.714 632.846 219.037 626.181 223.31C613.363 231.684 598.837 235.785 582.772 235.785C557.992 235.785 537.484 226.898 521.591 209.125C507.748 193.573 500.741 174.945 500.741 153.241C500.741 128.461 509.628 107.953 527.401 91.7178C542.611 77.875 561.068 71.0391 582.772 71.0391C607.553 71.0391 626.01 79.9258 646.518 101.288ZM818.612 75.8242V231H783.749V217.499C768.026 229.633 752.133 235.785 735.897 235.785C723.08 235.785 710.604 232.367 698.471 225.36C685.653 218.012 675.57 207.929 668.393 195.282C661.044 182.465 657.284 168.451 657.284 153.241C657.284 128.29 666.342 107.782 684.457 91.5469C699.838 77.875 716.928 71.0391 735.897 71.0391C751.962 71.0391 767.855 77.1914 783.749 89.3252V75.8242H818.612ZM737.948 102.655C724.789 102.655 713.852 107.611 704.794 117.353C696.591 126.239 692.489 138.202 692.489 153.241C692.489 170.502 697.787 183.661 708.212 192.89C716.757 200.409 726.84 204.169 738.632 204.169C752.133 204.169 763.241 199.384 771.957 189.813C780.16 180.756 784.262 168.451 784.262 152.899C784.262 135.98 779.135 122.821 768.71 113.764C760.336 106.415 750.082 102.655 737.948 102.655ZM858.261 231V75.8242H893.124V88.2998C899.789 83.002 905.258 79.4131 909.701 77.7041C913.974 75.9951 919.613 75.1406 926.62 75.1406C930.038 75.1406 934.311 75.3115 939.438 75.8242V107.099C933.798 106.928 929.696 106.757 927.304 106.757C913.29 106.757 903.891 111.371 898.935 120.6C895.004 127.948 893.124 139.74 893.124 156.317V231H858.261ZM1100.59 75.8242V231H1065.73V219.721C1054.62 230.487 1041.46 235.785 1026.25 235.785C1009.51 235.785 994.979 230.487 982.846 219.721C967.807 206.562 961.825 188.959 961.825 159.394V75.8242H996.688V156.659C996.688 172.04 998.568 183.148 1002.33 189.984C1007.28 199.042 1016.34 203.656 1029.67 203.656C1042.66 203.656 1054.96 197.504 1059.92 188.446C1063.85 181.439 1065.73 169.818 1065.73 153.412V75.8242H1100.59ZM1291.66 75.8242V231H1256.8V217.499C1241.07 229.633 1225.18 235.785 1208.94 235.785C1196.13 235.785 1183.65 232.367 1171.52 225.36C1158.7 218.012 1148.62 207.929 1141.44 195.282C1134.09 182.465 1130.33 168.451 1130.33 153.241C1130.33 128.29 1139.39 107.782 1157.5 91.5469C1172.88 77.875 1189.97 71.0391 1208.94 71.0391C1225.01 71.0391 1240.9 77.1914 1256.8 89.3252V75.8242H1291.66ZM1211 102.655C1197.84 102.655 1186.9 107.611 1177.84 117.353C1169.64 126.239 1165.54 138.202 1165.54 153.241C1165.54 170.502 1170.83 183.661 1181.26 192.89C1189.8 200.409 1199.89 204.169 1211.68 204.169C1225.18 204.169 1236.29 199.384 1245 189.813C1253.21 180.756 1257.31 168.451 1257.31 152.899C1257.31 135.98 1252.18 122.821 1241.76 113.764C1233.38 106.415 1223.13 102.655 1211 102.655ZM510.653 531V297.724H545.517V387.104C556.454 376.337 569.613 371.039 584.994 371.039C601.742 371.039 616.269 376.337 628.402 387.104C643.271 400.263 649.423 417.865 649.423 447.431V531H614.56V450.165C614.56 434.955 612.68 423.847 608.92 416.84C603.964 407.782 594.906 403.168 581.747 403.168C568.588 403.168 556.625 409.32 551.327 418.378C547.396 425.385 545.517 437.006 545.517 453.412V531H510.653ZM827.841 375.824V531H792.978V519.721C781.869 530.487 768.71 535.785 753.5 535.785C736.752 535.785 722.226 530.487 710.092 519.721C695.053 506.562 689.071 488.959 689.071 459.394V375.824H723.935V456.659C723.935 472.04 725.814 483.148 729.574 489.984C734.53 499.042 743.588 503.656 756.918 503.656C769.906 503.656 782.211 497.504 787.167 488.446C791.098 481.439 792.978 469.818 792.978 453.412V375.824H827.841ZM902.353 531H867.489V297.724H902.353V389.325C918.246 377.191 934.14 371.039 950.204 371.039C963.021 371.039 975.497 374.457 987.631 381.464C1000.45 388.812 1010.53 398.896 1017.88 411.371C1025.23 424.188 1028.82 438.031 1028.82 453.241C1028.82 478.363 1019.76 499.042 1001.64 515.277C986.264 528.949 969.174 535.785 950.204 535.785C933.969 535.785 918.075 529.633 902.353 517.499V531ZM947.47 402.655C934.14 402.655 923.202 407.44 914.486 416.84C906.283 425.897 902.182 438.031 902.182 453.241C902.182 470.502 907.479 483.832 917.904 493.231C926.107 500.58 936.02 504.169 947.812 504.169C961.142 504.169 972.25 499.384 981.137 489.643C989.511 480.585 993.612 468.109 993.612 452.558C993.612 437.006 988.998 424.701 979.599 415.644C970.712 406.928 959.945 402.655 947.47 402.655Z" fill="#AF3A3A"/>
<path d="M1255 63C1255 63 1316.31 49.212 1331.33 24.1498C1346.34 -0.912422 1311.31 -5.9309 1298.79 6.60451C1286.28 19.1399 1255 63 1255 63Z" fill="#AF3A3A"/>
</svg>
